<?xml version="1.0" encoding="UTF-8"?>
<svg width="16px" height="17px" viewBox="0 0 16 17" version="1.1" xmlns="http://www.w3.org/2000/svg" xmlns:xlink="http://www.w3.org/1999/xlink">
    <!-- Generator: Sketch 51 (57462) - http://www.bohemiancoding.com/sketch -->
    <title>B</title>
    <desc>Created with Sketch.</desc>
    <defs></defs>
    <g id="Instruction-—-Compose" stroke="none" stroke-width="1" fill="none" fill-rule="evenodd">
        <g id="3-Edit-Steps" transform="translate(-782.000000, -419.000000)">
            <path d="M796.350752,428.200846 C796.83942,428.552269 797.236458,428.993537 797.541875,429.524665 C797.847293,430.055793 798,430.680758 798,431.399577 C798,432.262161 797.826296,432.990953 797.478883,433.585976 C797.13147,434.180999 796.633265,434.650221 795.984252,434.993658 C795.297062,435.361054 794.504896,435.620624 793.607731,435.772375 C792.710566,435.924126 791.654981,436 790.440945,436 L782,436 L782,435.065539 C782.236699,435.041578 782.534477,435.005638 782.893343,434.957717 C783.252209,434.909795 783.504175,434.853888 783.649248,434.789993 C783.93176,434.67019 784.124552,434.512451 784.227631,434.316772 C784.330709,434.121094 784.382248,433.867514 784.382248,433.556025 L784.382248,421.575758 C784.382248,421.28823 784.340253,421.048627 784.256263,420.856942 C784.172274,420.665256 783.969937,420.497534 783.649248,420.35377 C783.41255,420.249941 783.137678,420.164083 782.824624,420.096195 C782.511571,420.028306 782.236699,419.974395 782,419.934461 L782,419 L790.830351,419 C793.052266,419 794.655686,419.319471 795.640659,419.958421 C796.625631,420.597372 797.11811,421.539811 797.11811,422.785765 C797.11811,423.36082 797.007398,423.865983 796.78597,424.301268 C796.564542,424.736554 796.247676,425.113928 795.835361,425.433404 C795.461225,425.728919 795.014558,425.984495 794.495347,426.200141 C793.976137,426.415787 793.418757,426.595489 792.823193,426.739253 L792.823193,426.966878 C793.418757,427.030773 794.037219,427.168545 794.678597,427.380197 C795.319975,427.59185 795.877354,427.865396 796.350752,428.200846 Z M792.662849,423.085271 C792.662849,422.142819 792.408974,421.408036 791.901217,420.880902 C791.39346,420.353768 790.631835,420.090204 789.616321,420.090204 C789.471247,420.090204 789.282273,420.096194 789.049392,420.108175 C788.81651,420.120155 788.616083,420.130139 788.448103,420.138125 L788.448103,426.439746 L789.043665,426.439746 C790.280607,426.439746 791.19303,426.138246 791.780959,425.535236 C792.368889,424.932226 792.662849,424.115579 792.662849,423.085271 Z M793.464567,431.243834 C793.464567,430.061775 793.128612,429.155277 792.456693,428.524313 C791.784774,427.893349 790.818904,427.577872 789.559055,427.577872 C789.413982,427.577872 789.221189,427.583862 788.980673,427.595842 C788.740156,427.607822 788.562635,427.617806 788.448103,427.625793 L788.448103,433.843552 C788.516822,434.139067 788.730611,434.388653 789.089477,434.592319 C789.448343,434.795984 789.883557,434.897815 790.395132,434.897815 C791.303751,434.897815 792.042469,434.578345 792.61131,433.939394 C793.180151,433.300443 793.464567,432.401932 793.464567,431.243834 Z" id="B" fill="#FFFFFF"></path>
        </g>
    </g>
</svg>