<?xml version="1.0" encoding="UTF-8"?>
<svg width="12px" height="17px" viewBox="0 0 12 17" version="1.1" xmlns="http://www.w3.org/2000/svg" xmlns:xlink="http://www.w3.org/1999/xlink">
    <!-- Generator: Sketch 51 (57462) - http://www.bohemiancoding.com/sketch -->
    <title>dwnld</title>
    <desc>Created with Sketch.</desc>
    <defs></defs>
    <g id="Instruction" stroke="none" stroke-width="1" fill="none" fill-rule="evenodd">
        <g id="Instr---desktop" transform="translate(-1342.000000, -821.000000)">
            <g id="Group-14" transform="translate(960.000000, 580.000000)" fill="#555555" fill-rule="nonzero" opacity="0.699999988">
                <path d="M393.968083,256.009638 L382.00021,256.009638 L382.00021,258 L393.968083,258 L393.968083,256.009638 Z M392.658436,248.049869 L388.760169,251.952389 L388.760169,241.787077 C388.760169,241.352158 388.407774,241 387.973901,241 C387.539669,241 387.187874,241.352278 387.187874,241.787197 L387.187874,251.952509 L383.342089,248.102884 C383.035106,247.795346 382.537488,247.795346 382.230506,248.102884 C381.923165,248.410183 381.923165,248.908433 382.230506,249.215851 L387.41805,254.408616 C387.436024,254.427088 387.455674,254.44448 387.475684,254.461152 C387.514986,254.490059 387.526009,254.499294 387.537153,254.506971 C387.548775,254.514527 387.560158,254.520645 387.571422,254.527841 C387.615156,254.55291 387.627019,254.558187 387.638881,254.563825 C387.650504,254.569222 387.661647,254.57474 387.67279,254.579657 C387.684533,254.584455 387.696275,254.588293 387.708138,254.592252 C387.720599,254.596809 387.732941,254.601607 387.745522,254.605326 C387.757624,254.608924 387.769127,254.611563 387.781109,254.614561 C387.79405,254.61732 387.806751,254.621518 387.819931,254.623917 C387.83371,254.626436 387.84761,254.627875 387.861389,254.630394 C387.947541,254.640469 387.999663,254.640469 388.051186,254.635432 C388.099474,254.627875 388.113733,254.626916 388.127033,254.623917 C388.140094,254.621398 388.153034,254.61732 388.165855,254.614561 C388.178077,254.611563 388.1897,254.608924 388.201682,254.605326 C388.214263,254.601607 388.226485,254.596809 388.239066,254.592252 C388.251288,254.588653 388.262431,254.584815 388.274413,254.579657 C388.285916,254.57474 388.297299,254.569222 388.308323,254.563825 C388.320305,254.558067 388.332167,254.55279 388.34391,254.546193 C388.387285,254.520645 388.398668,254.514647 388.409931,254.506971 C388.421434,254.499294 388.432577,254.490059 388.443601,254.482262 C388.501355,254.436683 388.528914,254.408736 388.554675,254.380789 C388.560746,254.375432 390.299074,252.636274 393.769658,249.163315 C394.076761,248.855297 394.076761,248.357047 393.769778,248.049869 C393.462916,247.74257 392.965058,247.74257 392.658436,248.049869 Z" id="dwnld"></path>
            </g>
        </g>
    </g>
</svg>