<?xml version="1.0" encoding="UTF-8"?>
<svg width="9px" height="18px" viewBox="0 0 9 18" version="1.1" xmlns="http://www.w3.org/2000/svg" xmlns:xlink="http://www.w3.org/1999/xlink">
    <!-- Generator: Sketch 51 (57462) - http://www.bohemiancoding.com/sketch -->
    <title>Shape Copy</title>
    <desc>Created with Sketch.</desc>
    <defs></defs>
    <g id="Instruction" stroke="none" stroke-width="1" fill="none" fill-rule="evenodd">
        <g id="Instr---desktop" transform="translate(-1190.000000, -962.000000)">
            <g id="Group-14" transform="translate(960.000000, 580.000000)" fill="#555555" fill-rule="nonzero" opacity="0.704990672">
                <path d="M235.94386,395.500937 C235.94386,396.936288 235.940351,398.368068 235.947368,399.803419 C235.947368,399.960522 235.905263,400.003368 235.750877,399.999798 C234.550877,399.992657 233.354386,399.992657 232.154386,399.999798 C231.989474,399.999798 231.936842,399.960522 231.936842,399.785566 C231.94386,396.939858 231.940351,394.097721 231.940351,391.252013 C231.940351,390.966371 231.97193,391.002077 231.684211,390.998506 C231.175439,390.998506 230.666667,390.994936 230.157895,391.002077 C230.035088,391.002077 230,390.962801 230,390.837833 C230.003509,389.93449 230.003509,389.027577 230,388.124234 C230,387.999266 230.035088,387.95999 230.157895,387.96356 C230.691228,387.970702 231.221053,387.95999 231.754386,387.970702 C231.898246,387.974272 231.94386,387.934996 231.94386,387.781464 C231.936842,387.020942 231.94386,386.25685 231.940351,385.496328 C231.936842,384.864345 232.031579,384.253786 232.34386,383.696784 C232.680702,383.089795 233.185965,382.672044 233.810526,382.400684 C234.336842,382.17217 234.891228,382.065054 235.459649,382.03292 C236.585965,381.96865 237.715789,382.022208 238.842105,382.000785 C238.968421,381.997214 239,382.043631 239,382.165029 C238.996491,383.104077 238.996491,384.046695 239,384.985743 C239,385.128564 238.947368,385.149987 238.824561,385.149987 C238.175439,385.146417 237.526316,385.146417 236.877193,385.146417 C236.336842,385.146417 235.947368,385.542745 235.947368,386.085465 C235.947368,386.646037 235.954386,387.203039 235.94386,387.763611 C235.940351,387.924285 235.992982,387.96356 236.14386,387.96356 C237.031579,387.956419 237.922807,387.96356 238.810526,387.956419 C238.957895,387.956419 239.007018,387.999266 238.989474,388.149228 C238.936842,388.609825 238.891228,389.070423 238.842105,389.531021 C238.796491,389.973766 238.719298,390.41294 238.649123,390.852115 C238.62807,390.977083 238.589474,391.005647 238.477193,391.005647 C237.715789,391.002077 236.957895,391.002077 236.196491,391.005647 C235.898246,391.005647 235.940351,390.966371 235.940351,391.273436 C235.94386,392.680223 235.94386,394.09058 235.94386,395.500937 Z" id="Shape-Copy"></path>
            </g>
        </g>
    </g>
</svg>