<?xml version="1.0" encoding="utf-8"?>
<!-- Generator: Adobe Illustrator 19.2.1, SVG Export Plug-In . SVG Version: 6.00 Build 0)  -->
<svg version="1.1" id="Слой_1" xmlns="http://www.w3.org/2000/svg" xmlns:xlink="http://www.w3.org/1999/xlink" x="0px" y="0px"
	 viewBox="0 0 18 19" style="enable-background:new 0 0 18 19;" xml:space="preserve">
<style type="text/css">
	.st0{fill:#B2B2B2;}
</style>
<title>Icon</title>
<desc>Created with Sketch.</desc>
<g id="Symbols">
	<g id="Instr_card" transform="translate(-15.000000, -326.000000)">
		<g id="Icon">
			<path class="st0" d="M24,344.5l-0.7-0.8c-0.7-0.7-1.4-1.5-2.2-2.2c-3.6-3.5-6.1-6.2-6.1-9.7c0-3.2,2.4-5.8,5.4-5.8
				c1.3,0,2.6,0.5,3.6,1.4c1-0.9,2.3-1.4,3.6-1.4c3,0,5.4,2.5,5.4,5.8c0,3.5-2.5,6.2-6.1,9.7c-0.7,0.7-1.5,1.5-2.2,2.2L24,344.5z
				 M20.4,328c-1.9,0-3.4,1.7-3.4,3.8c0,2.7,2.3,5.1,5.5,8.2c0.5,0.5,1,1,1.5,1.5c0.5-0.5,1-1,1.5-1.5c3.2-3.1,5.5-5.5,5.5-8.2
				c0-2.1-1.5-3.8-3.4-3.8c-0.9,0-1.8,0.4-2.5,1.1l-1.1,1.1l-1.1-1.1C22.2,328.4,21.3,328,20.4,328z"/>
		</g>
	</g>
</g>
</svg>
