<?xml version="1.0" encoding="UTF-8"?>
<svg width="6px" height="18px" viewBox="0 0 6 18" version="1.1" xmlns="http://www.w3.org/2000/svg" xmlns:xlink="http://www.w3.org/1999/xlink">
    <!-- Generator: Sketch 51 (57462) - http://www.bohemiancoding.com/sketch -->
    <title>i</title>
    <desc>Created with Sketch.</desc>
    <defs></defs>
    <g id="Instruction-—-Compose" stroke="none" stroke-width="1" fill="none" fill-rule="evenodd">
        <g id="3-Edit-Steps" transform="translate(-830.000000, -418.000000)">
            <path d="M835.224044,434.476562 L835.060109,435.226562 C834.389796,435.515626 833.854283,435.716796 833.453552,435.830078 C833.052821,435.94336 832.710384,436 832.42623,436 C831.843349,436 831.406195,435.837892 831.114754,435.513672 C830.823314,435.189452 830.677596,434.789065 830.677596,434.3125 C830.677596,434.132812 830.692167,433.945313 830.721311,433.75 C830.750456,433.554687 830.797814,433.308595 830.863388,433.011719 L832.021858,428.03125 C832.080146,427.757811 832.136612,427.464845 832.191257,427.152344 C832.245902,426.839842 832.273224,426.57422 832.273224,426.355469 C832.273224,425.917967 832.205829,425.626954 832.071038,425.482422 C831.936247,425.33789 831.661204,425.265625 831.245902,425.265625 C831.085609,425.265625 830.872497,425.292968 830.606557,425.347656 C830.340618,425.402344 830.138434,425.449219 830,425.488281 L830.163934,424.738281 C830.732243,424.464842 831.242256,424.261719 831.693989,424.128906 C832.145722,423.996093 832.502731,423.929688 832.765027,423.929688 C833.36248,423.929688 833.795991,424.08203 834.065574,424.386719 C834.335156,424.691408 834.469945,425.10156 834.469945,425.617188 C834.469945,425.757813 834.455374,425.949218 834.42623,426.191406 C834.397085,426.433595 834.35337,426.67578 834.295082,426.917969 L833.125683,431.898438 C833.052823,432.203127 832.989071,432.501952 832.934426,432.794922 C832.879781,433.087892 832.852459,433.328124 832.852459,433.515625 C832.852459,433.96094 832.945354,434.265624 833.131148,434.429688 C833.316941,434.593751 833.617484,434.675781 834.032787,434.675781 C834.171221,434.675781 834.369762,434.65625 834.628415,434.617188 C834.887069,434.578125 835.08561,434.53125 835.224044,434.476562 Z M836,419.5 C836,419.945315 835.865211,420.333983 835.595628,420.666016 C835.326046,420.998049 834.990895,421.164062 834.590164,421.164062 C834.218577,421.164062 833.897998,421.005861 833.628415,420.689453 C833.358833,420.373045 833.224044,420.011721 833.224044,419.605469 C833.224044,419.175779 833.358833,418.800783 833.628415,418.480469 C833.897998,418.160155 834.218577,418 834.590164,418 C835.005467,418 835.344261,418.150389 835.606557,418.451172 C835.868854,418.751955 836,419.101561 836,419.5 Z" id="i" fill="#282828"></path>
        </g>
    </g>
</svg>