<?xml version="1.0" encoding="UTF-8"?>
<svg width="11px" height="18px" viewBox="0 0 11 18" version="1.1" xmlns="http://www.w3.org/2000/svg" xmlns:xlink="http://www.w3.org/1999/xlink">
    <!-- Generator: Sketch 51 (57462) - http://www.bohemiancoding.com/sketch -->
    <title>Combined Shape</title>
    <desc>Created with Sketch.</desc>
    <defs></defs>
    <g id="Instruction" stroke="none" stroke-width="1" fill="none" fill-rule="evenodd">
        <g id="Instr---desktop" transform="translate(-1223.000000, -962.000000)">
            <g id="Group-14" transform="translate(960.000000, 580.000000)" fill="#555555" fill-rule="nonzero" opacity="0.699999988">
                <path d="M272.777778,391 C273.452444,391 274,391.5376 274,392.2 C274,392.8 273.652889,393.0886 273.388889,393.2404 C272.664722,393.6562 270.333333,394.6 270.333333,394.6 L272.930556,397.8628 C272.930556,397.8628 273.388889,398.4238 273.388889,398.8 C273.388889,399.4624 272.841333,400 272.166667,400 C271.542722,400 271.259778,399.6064 271.259778,399.6064 C271.259778,399.6064 268.504278,396.3958 268.5,396.4 C268.495722,396.3958 265.740222,399.6064 265.740222,399.6064 C265.740222,399.6064 265.457278,400 264.833333,400 C264.158667,400 263.611111,399.4624 263.611111,398.8 C263.611111,398.4238 264.069444,397.8628 264.069444,397.8628 L266.666667,394.6 C266.666667,394.6 264.335278,393.6562 263.611111,393.2404 C263.347111,393.0886 263,392.8 263,392.2 C263,391.5376 263.547556,391 264.222222,391 C264.833333,391 266.055556,392.2 268.5,392.2 C270.944444,392.2 272.166667,391 272.777778,391 Z M268.277778,382 C270.639722,382 272.555556,383.8804 272.555556,386.2 C272.555556,388.5196 270.639722,390.4 268.277778,390.4 C265.915222,390.4 264,388.5196 264,386.2 C264,383.8804 265.915222,382 268.277778,382 Z M268.277778,388.3 C269.458444,388.3 270.416667,387.3604 270.416667,386.2 C270.416667,385.0402 269.458444,384.1 268.277778,384.1 C267.0965,384.1 266.138889,385.0402 266.138889,386.2 C266.138889,387.3604 267.0965,388.3 268.277778,388.3 Z" id="Combined-Shape"></path>
            </g>
        </g>
    </g>
</svg>