<?xml version="1.0" encoding="UTF-8"?>
<svg width="20px" height="19px" viewBox="0 0 20 19" version="1.1" xmlns="http://www.w3.org/2000/svg" xmlns:xlink="http://www.w3.org/1999/xlink">
    <!-- Generator: Sketch 51 (57462) - http://www.bohemiancoding.com/sketch -->
    <title>prnt</title>
    <desc>Created with Sketch.</desc>
    <defs></defs>
    <g id="Instruction" stroke="none" stroke-width="1" fill="none" fill-rule="evenodd">
        <g id="Instr---desktop" transform="translate(-1338.000000, -891.000000)">
            <g id="Group-14" transform="translate(960.000000, 580.000000)" fill="#555555" fill-rule="nonzero" opacity="0.699999988">
                <path d="M396.089903,311 L379.909168,311 C378.859095,311 378,311.876689 378,312.95731 L378,322.963555 C378,324.06408 378.859095,324.968037 379.909168,324.968037 L381.232811,324.968037 L381.232811,329.176691 C381.232811,329.628948 381.589493,330 382.029674,330 L393.944717,330 C394.384885,330 394.731001,329.628948 394.731001,329.176691 L394.731001,324.968037 L396.089903,324.968037 C396.603004,324.968037 397.082449,324.750856 397.448408,324.364201 C397.807129,323.985143 398,323.484958 398,322.963543 L398,312.95731 C398,311.876689 397.148299,311 396.089903,311 Z M393.138721,328.363992 L382.82509,328.363992 L382.82509,318.461187 L393.138721,318.461187 L393.138721,328.363992 Z M396.089903,323.332029 L394.731001,323.332029 L394.731001,317.630479 C394.731001,317.17821 394.384897,316.825179 393.944717,316.825179 L382.029674,316.825179 C381.589493,316.825179 381.232811,317.17821 381.232811,317.630479 L381.232811,323.332029 L379.909168,323.332029 C379.743848,323.332029 379.59228,323.154361 379.59228,322.963555 L379.59228,312.95731 C379.59228,312.776729 379.735175,312.648402 379.909168,312.648402 L396.089916,312.648402 C396.266357,312.648402 396.407732,312.782778 396.407732,312.95731 L396.407732,322.963555 C396.40772,323.147656 396.257201,323.332029 396.089903,323.332029 Z M384.580048,313.701892 L382.029674,313.701892 C381.589493,313.701892 381.232678,314.073836 381.232678,314.526093 C381.232678,314.97835 381.589493,315.350294 382.029674,315.350294 L384.580048,315.350294 C385.020217,315.350294 385.377045,314.97835 385.377045,314.526093 C385.377045,314.073836 385.020229,313.701892 384.580048,313.701892 Z" id="prnt"></path>
            </g>
        </g>
    </g>
</svg>