<?xml version="1.0" encoding="UTF-8"?>
<svg width="10px" height="12px" viewBox="0 0 10 12" version="1.1" xmlns="http://www.w3.org/2000/svg" xmlns:xlink="http://www.w3.org/1999/xlink">
    <!-- Generator: Sketch 51 (57462) - http://www.bohemiancoding.com/sketch -->
    <title>₽</title>
    <desc>Created with Sketch.</desc>
    <defs></defs>
    <g id="Instruction-—-Compose" stroke="none" stroke-width="1" fill="none" fill-rule="evenodd">
        <g id="4-Check" transform="translate(-1137.000000, -687.000000)">
            <g id="Group-4" transform="translate(1130.000000, 682.000000)" fill="#FFFFFF">
                <path d="M12.648,12.92 L10.36,12.92 L10.36,13.992 L14.12,13.992 L14.12,15.24 L10.36,15.24 L10.36,17 L8.52,17 L8.52,15.24 L7.24,15.24 L7.24,13.992 L8.52,13.992 L8.52,12.92 L7.24,12.92 L7.24,11.272 L8.52,11.272 L8.52,5.8 L12.648,5.8 C13.656,5.8 14.52,6.152 15.224,6.856 C15.928,7.544 16.28,8.392 16.28,9.4 C16.28,10.392 15.928,11.224 15.224,11.912 C14.52,12.584 13.656,12.92 12.648,12.92 Z M12.648,7.528 L10.36,7.528 L10.36,11.272 L12.648,11.272 C13.144,11.272 13.576,11.096 13.912,10.728 C14.264,10.36 14.44,9.928 14.44,9.4 C14.44,8.872 14.264,8.44 13.912,8.072 C13.576,7.704 13.144,7.528 12.648,7.528 Z" id="₽"></path>
            </g>
        </g>
    </g>
</svg>