<?xml version="1.0" encoding="UTF-8"?>
<svg width="18px" height="15px" viewBox="0 0 18 15" version="1.1" xmlns="http://www.w3.org/2000/svg" xmlns:xlink="http://www.w3.org/1999/xlink">
    <!-- Generator: Sketch 51 (57462) - http://www.bohemiancoding.com/sketch -->
    <title>Shape Copy 3</title>
    <desc>Created with Sketch.</desc>
    <defs></defs>
    <g id="Instruction" stroke="none" stroke-width="1" fill="none" fill-rule="evenodd">
        <g id="Instr---desktop" transform="translate(-1302.000000, -963.000000)">
            <g id="Group-14" transform="translate(960.000000, 580.000000)" fill="#555555" opacity="0.704990672">
                <path d="M351.587072,394.754994 C350.896983,395.422801 350.212867,396.079531 349.535123,396.741404 C349.298191,396.973237 349.031792,397.101418 348.691725,397.083615 C348.459572,397.071351 348.329757,396.970072 348.258478,396.751294 C347.739219,395.150218 347.212394,393.553099 346.695922,391.95044 C346.645748,391.794961 346.571682,391.719398 346.413197,391.670737 C345.189912,391.299645 343.969016,390.919849 342.750111,390.53491 C342.562556,390.475567 342.373409,390.398026 342.211339,390.288439 C341.960869,390.119904 341.924234,389.844948 342.148821,389.647138 C342.356286,389.464757 342.603969,389.305718 342.86121,389.204439 C344.356469,388.615756 345.859692,388.046062 347.360526,387.471226 C351.169355,386.010199 354.978185,384.55036 358.787412,383.089334 C359.511747,382.811212 360.068437,383.202877 359.993176,383.981062 C359.944994,384.478753 359.815179,384.968531 359.710451,385.459891 C358.883379,389.339741 358.055512,393.219986 357.22406,397.099045 C357.02655,398.020049 356.375485,398.260586 355.612525,397.701575 C354.334686,396.765932 353.058041,395.827125 351.780998,394.8899 C351.720073,394.845986 351.656758,394.803655 351.587072,394.754994 Z M348.718803,395.933151 C348.733138,395.929195 348.747474,395.925239 348.761809,395.921678 C348.769773,395.885281 348.781321,395.849675 348.784507,395.813674 C348.866537,394.93421 348.953346,394.055141 349.024624,393.174094 C349.040552,392.977867 349.108247,392.838608 349.256778,392.706471 C350.434667,391.660055 351.60539,390.606913 352.778501,389.556145 C354.077047,388.392626 355.375991,387.230293 356.669759,386.062026 C356.749798,385.990023 356.783247,385.86738 356.838199,385.767684 C356.716349,385.754628 356.585738,385.705967 356.475037,385.734452 C356.324117,385.773223 356.181161,385.860259 356.046568,385.944526 C353.180688,387.737874 350.317197,389.534386 347.449326,391.324173 C347.287256,391.425452 347.256993,391.511302 347.318715,391.688144 C347.530161,392.291465 347.722494,392.900325 347.921995,393.507998 C348.187598,394.316646 348.4532,395.124899 348.718803,395.933151 Z" id="Shape-Copy-3"></path>
            </g>
        </g>
    </g>
</svg>