<?xml version="1.0" encoding="UTF-8"?>
<svg width="16px" height="13px" viewBox="0 0 16 13" version="1.1" xmlns="http://www.w3.org/2000/svg" xmlns:xlink="http://www.w3.org/1999/xlink">
    <!-- Generator: Sketch 51 (57462) - http://www.bohemiancoding.com/sketch -->
    <title>Shape Copy 2</title>
    <desc>Created with Sketch.</desc>
    <defs></defs>
    <g id="Instruction" stroke="none" stroke-width="1" fill="none" fill-rule="evenodd">
        <g id="Instr---desktop" transform="translate(-1344.000000, -964.000000)">
            <g id="Group-14" transform="translate(960.000000, 580.000000)" fill="#555555" fill-rule="nonzero" opacity="0.704990672">
                <path d="M400,385.538867 C399.41181,385.80027 398.7788,385.976595 398.114609,386.055503 C398.792765,385.649598 399.31275,385.006644 399.557964,384.239646 C398.923655,384.616001 398.221464,384.889094 397.473479,385.036519 C396.874896,384.398761 396.02168,384 395.077523,384 C393.264884,384 391.795222,385.469376 391.795222,387.281985 C391.795222,387.538842 391.824128,387.789204 391.880316,388.029825 C389.152102,387.892791 386.733086,386.586427 385.114021,384.600739 C384.831456,385.085228 384.669712,385.648948 384.669712,386.250987 C384.669712,387.389469 385.249132,388.394165 386.129956,388.982565 C385.592108,388.965354 385.085764,388.817605 384.643079,388.571789 C384.642754,388.585427 384.642754,388.599391 384.642754,388.613354 C384.642754,390.203202 385.774313,391.529375 387.27613,391.831368 C387.00071,391.906055 386.710675,391.946321 386.411221,391.946321 C386.19946,391.946321 385.99387,391.925863 385.793476,391.887221 C386.211477,393.190988 387.423584,394.140156 388.859793,394.166459 C387.736354,395.046785 386.321255,395.571539 384.783062,395.571539 C384.518361,395.571539 384.256907,395.555952 384,395.525428 C385.453099,396.457061 387.178369,397 389.031931,397 C395.070053,397 398.371516,391.999251 398.371516,387.662237 C398.371516,387.520008 398.368593,387.378104 398.362422,387.237173 C399.003552,386.775416 399.560238,386.197082 400,385.538867 Z" id="Shape-Copy-2"></path>
            </g>
        </g>
    </g>
</svg>