<?xml version="1.0" encoding="UTF-8"?>
<svg width="23px" height="20px" viewBox="0 0 23 20" version="1.1" xmlns="http://www.w3.org/2000/svg" xmlns:xlink="http://www.w3.org/1999/xlink">
    <!-- Generator: Sketch 51 (57462) - http://www.bohemiancoding.com/sketch -->
    <title>Combined Shape</title>
    <desc>Created with Sketch.</desc>
    <defs></defs>
    <g id="Instruction-—-Compose" stroke="none" stroke-width="1" fill="none" fill-rule="evenodd">
        <g id="3-Edit-Steps" transform="translate(-950.000000, -417.000000)">
            <path d="M958,418 L973,418 L973,420 L958,420 L958,418 Z M958,426 L973,426 L973,428 L958,428 L958,426 Z M958,434 L973,434 L973,436 L958,436 L958,434 Z M952,421 C950.895431,421 950,420.104569 950,419 C950,417.895431 950.895431,417 952,417 C953.104569,417 954,417.895431 954,419 C954,420.104569 953.104569,421 952,421 Z M952,429 C950.895431,429 950,428.104569 950,427 C950,425.895431 950.895431,425 952,425 C953.104569,425 954,425.895431 954,427 C954,428.104569 953.104569,429 952,429 Z M952,437 C950.895431,437 950,436.104569 950,435 C950,433.895431 950.895431,433 952,433 C953.104569,433 954,433.895431 954,435 C954,436.104569 953.104569,437 952,437 Z" id="Combined-Shape" fill="#FFFFFF"></path>
        </g>
    </g>
</svg>