<?xml version="1.0" encoding="UTF-8"?>
<svg width="25px" height="16px" viewBox="0 0 25 16" version="1.1" xmlns="http://www.w3.org/2000/svg" xmlns:xlink="http://www.w3.org/1999/xlink">
    <!-- Generator: Sketch 51 (57462) - http://www.bohemiancoding.com/sketch -->
    <title>if_video_216502</title>
    <desc>Created with Sketch.</desc>
    <defs></defs>
    <g id="Instruction-—-Compose" stroke="none" stroke-width="1" fill="none" fill-rule="evenodd">
        <g id="3-Edit-Steps" transform="translate(-298.000000, -2244.000000)">
            <g id="if_video_216502" transform="translate(298.000000, 2244.000000)" fill="#ECECEC" fill-rule="nonzero">
                <path d="M24.4571429,2.456 C24.2742857,2.34285714 24.0662857,2.28571429 23.8571429,2.28571429 C23.6822857,2.28571429 23.5074286,2.32571429 23.3462857,2.40571429 L19.4285714,5.86514286 L19.4285714,3.42857143 C19.4285714,1.53828571 17.8902857,0 16,0 L3.42857143,0 C1.53828571,0 0,1.53828571 0,3.42857143 L0,12.5714286 C0,14.4617143 1.53828571,16 3.42857143,16 L16,16 C17.8902857,16 19.4285714,14.4617143 19.4285714,12.5714286 L19.4285714,10.1348571 L23.3462857,13.5931429 C23.5074286,13.6742857 23.6822857,13.7142857 23.8571429,13.7142857 C24.0662857,13.7142857 24.2742857,13.6571429 24.4571429,13.544 C24.7942857,13.3348571 25,12.968 25,12.5714286 L25,3.42857143 C25,3.032 24.7942857,2.66514286 24.4571429,2.456 Z" id="Shape"></path>
            </g>
        </g>
    </g>
</svg>