<?xml version="1.0" encoding="UTF-8"?>
<svg width="20px" height="12px" viewBox="0 0 20 12" version="1.1" xmlns="http://www.w3.org/2000/svg" xmlns:xlink="http://www.w3.org/1999/xlink">
    <!-- Generator: Sketch 51 (57462) - http://www.bohemiancoding.com/sketch -->
    <title>path9 copy</title>
    <desc>Created with Sketch.</desc>
    <defs></defs>
    <g id="Instruction" stroke="none" stroke-width="1" fill="none" fill-rule="evenodd">
        <g id="Instr---desktop" transform="translate(-1258.000000, -965.000000)">
            <g id="Group-14" transform="translate(960.000000, 580.000000)" fill="#555555" opacity="0.704990672">
                <path d="M307.785478,396.064638 L308.980838,396.064638 C308.980838,396.064638 309.341802,396.025801 309.526342,395.832431 C309.696194,395.6547 309.690762,395.321098 309.690762,395.321098 C309.690762,395.321098 309.667175,393.759075 310.411789,393.529134 C311.145771,393.302509 312.088113,395.038716 313.086937,395.706269 C313.842293,396.211439 314.416334,396.100859 314.416334,396.100859 L317.08724,396.064638 C317.08724,396.064638 318.484099,395.980627 317.821763,394.91081 C317.767552,394.823485 317.435724,394.119595 315.835938,392.673502 C314.160805,391.159502 314.385345,391.404558 316.402815,388.786148 C317.631308,387.191509 318.122659,386.218261 317.968987,385.801171 C317.822715,385.403965 316.919118,385.508731 316.919118,385.508731 L313.911725,385.527046 C313.911725,385.527046 313.688916,385.497394 313.523479,385.593673 C313.361986,385.687974 313.258224,385.907914 313.258224,385.907914 C313.258224,385.907914 312.781857,387.141859 312.147279,388.191269 C310.808389,390.405438 310.272861,390.522646 310.053992,390.384857 C309.544787,390.064394 309.672131,389.097774 309.672131,388.410744 C309.672131,386.26483 310.006346,385.370012 309.021076,385.138502 C308.694146,385.061643 308.453426,385.010654 307.61735,385.002457 C306.544441,384.991817 305.636185,385.005772 305.122088,385.250943 C304.779989,385.414488 304.515926,385.777683 304.676948,385.79873 C304.875693,385.824543 305.325731,385.91681 305.564301,386.233144 C305.872489,386.641514 305.861683,387.558309 305.861683,387.558309 C305.861683,387.558309 306.038879,390.084394 305.448182,390.397996 C305.042745,390.613285 304.486732,390.173928 303.292742,388.16499 C302.681212,387.136103 302.219351,385.998379 302.219351,385.998379 C302.219351,385.998379 302.130514,385.786055 301.971526,385.672161 C301.778806,385.534197 301.509433,385.490592 301.509433,385.490592 L298.651708,385.508616 C298.651708,385.508616 298.22269,385.520476 298.065432,385.70216 C297.92507,385.863846 298.054208,386.197913 298.054208,386.197913 C298.054208,386.197913 300.291321,391.29514 302.824555,393.863725 C305.147936,396.219404 307.785478,396.064638 307.785478,396.064638 Z" id="path9-copy"></path>
            </g>
        </g>
    </g>
</svg>