<?xml version="1.0" encoding="UTF-8"?>
<svg width="103px" height="18px" viewBox="0 0 103 18" version="1.1" xmlns="http://www.w3.org/2000/svg" xmlns:xlink="http://www.w3.org/1999/xlink">
    <!-- Generator: Sketch 51 (57462) - http://www.bohemiancoding.com/sketch -->
    <title>Text</title>
    <desc>Created with Sketch.</desc>
    <defs></defs>
    <g id="Symbols" stroke="none" stroke-width="1" fill="none" fill-rule="evenodd">
        <g id="Header_desktop" transform="translate(-155.000000, -22.000000)" fill="#3F36FF">
            <g id="Group-4">
                <g id="Logo-Copy">
                    <g id="Text" transform="translate(155.878220, 22.000000)">
                        <polygon id="Fill-47" points="12.1324713 5.1428 14.5052447 12.8095455 14.9699407 12.8095455 16.5355224 0 19.9843872 0 17.8318107 17 12.7195645 17 10.2488931 8.45244976 9.75979641 8.45244976 7.26472431 17 2.1525765 17 0 0 3.49786302 0 5.03884726 12.8095455 5.52794396 12.8095455 7.87631657 5.1428"></polygon>
                        <path d="M22.0244426,17 L24.9388673,17 L24.9388673,4.9806407 L22.0244426,4.9806407 L22.0244426,17 Z M21.9828259,2.99310612 L24.980484,2.99310612 L24.980484,0 L21.9828259,0 L21.9828259,2.99310612 Z" id="Fill-48"></path>
                        <polygon id="Fill-49" points="37.5388414 17 34.6926779 11.3645292 34.2262306 11.3645292 32.2434308 13.5626591 32.2434308 17 28.9773614 17 28.9773614 0 32.2434308 0 32.2434308 9.75087418 36.6990299 4.9806407 40.338182 4.9806407 36.9323004 8.76909926 40.9679938 17"></polygon>
                        <path d="M44.0073523,17 L46.921777,17 L46.921777,4.9806407 L44.0073523,4.9806407 L44.0073523,17 Z M43.9656518,2.99310612 L46.9633099,2.99310612 L46.9633099,0 L43.9656518,0 L43.9656518,2.99310612 Z" id="Fill-50"></path>
                        <path d="M54.5048726,7.57154929 L58.4542574,7.57154929 C59.5010788,7.57154929 60.2385142,7.37713442 60.666755,6.98801737 C61.0949957,6.59928341 61.3092597,6.04754742 61.3092597,5.33328826 C61.3092597,4.53963506 61.0671481,3.97228842 60.5834992,3.63086526 C60.0996589,3.28982519 59.271025,3.11887419 58.0975017,3.11887419 L54.5048726,3.11887419 L54.5048726,7.57154929 Z M58.9539832,0 C60.8412092,0 62.3083286,0.465446433 63.3551501,1.39547736 C64.4018758,2.32589137 64.9253343,3.62569363 64.9253343,5.29526723 C64.9253343,6.36071817 64.7071468,7.27925659 64.2711547,8.05059519 C63.8347797,8.82183801 63.2125626,9.42165098 62.4035464,9.8512791 L64.9492584,17 L61.3806491,17 L59.0965707,10.6189784 L54.5048726,10.6189784 L54.5048726,17 L50.9601874,17 L50.9601874,0 L58.9539832,0 Z" id="Fill-51"></path>
                        <path d="M72.7577859,18 C71.9435647,18 71.2353327,17.8724012 70.6331882,17.6173027 C70.030749,17.3626011 69.529977,17.0008396 69.1314614,16.5319188 C68.7322583,16.0634941 68.4354099,15.5044802 68.2400322,14.8546787 C68.0445562,14.2053732 67.9469165,13.4854221 67.9469165,12.6963135 L67.9469165,5 L71.3659775,5 L71.3659775,12.2027858 C71.3659775,13.0909174 71.5691153,13.7692948 71.976275,14.2381163 C72.38314,14.7066402 72.9855792,14.9411998 73.7834944,14.9411998 C74.2066654,14.9411998 74.5893661,14.8546787 74.9313016,14.6820333 C75.2730408,14.5092887 75.5619326,14.279194 75.7981736,13.9912532 C76.03412,13.7037094 76.2133881,13.3665547 76.3353887,12.9801862 C76.4575857,12.5937185 76.5184878,12.1868112 76.5184878,11.7590673 L76.5184878,5 L79.9375488,5 L79.9375488,17.6792169 L76.6164222,17.6792169 L76.6164222,16.4950084 L76.1279288,16.4950084 C75.8509227,16.9228515 75.4277516,17.280545 74.8580227,17.5680888 C74.2879009,17.8556327 73.5882149,18 72.7577859,18" id="Fill-53"></path>
                        <polygon id="Fill-55" points="92.4959062 17 89.6497426 11.3645292 89.1832954 11.3645292 87.2004956 13.5626591 87.2004956 17 83.9344262 17 83.9344262 0 87.2004956 0 87.2004956 9.75087418 91.6560947 4.9806407 95.2952468 4.9806407 91.8893652 8.76909926 95.9250585 17"></polygon>
                        <path d="M98.9644171,17 L101.878842,17 L101.878842,4.9806407 L98.9644171,4.9806407 L98.9644171,17 Z M98.9227166,2.99310612 L101.920375,2.99310612 L101.920375,0 L98.9227166,0 L98.9227166,2.99310612 Z" id="Fill-57"></path>
                    </g>
                </g>
            </g>
        </g>
    </g>
</svg>