<?xml version="1.0" encoding="UTF-8"?>
<svg width="95px" height="42px" viewBox="0 0 95 42" version="1.1" xmlns="http://www.w3.org/2000/svg" xmlns:xlink="http://www.w3.org/1999/xlink">
    <!-- Generator: Sketch 51 (57462) - http://www.bohemiancoding.com/sketch -->
    <title>Group</title>
    <desc>Created with Sketch.</desc>
    <defs></defs>
    <g id="Symbols" stroke="none" stroke-width="1" fill="none" fill-rule="evenodd">
        <g id="Footer_desktop" transform="translate(-79.000000, -344.000000)">
            <g id="Group-2">
                <g id="Group" transform="translate(80.000000, 345.000000)">
                    <g id="Icons">
                        <polygon id="Fill-1" stroke="#F1F1F1" fill="#202020" points="0 39.9391781 92.945863 39.9391781 92.945863 0.109589041 0 0.109589041"></polygon>
                        <polygon id="Fill-2" fill="#FFFFFF" points="21.3357808 10.6645479 23.4012055 10.6645479 23.4012055 9.63178082 21.3357808 9.63178082"></polygon>
                        <polygon id="Fill-3" fill="#FFFFFF" points="25.4666301 19.9589041 26.4992877 19.9589041 26.4992877 18.9262466 25.4666301 18.9262466"></polygon>
                        <polygon id="Fill-4" fill="#FFFFFF" points="23.4012164 23.4014137 24.4339836 23.4014137 24.4339836 18.9263452 25.4666411 18.9263452 25.4666411 17.8935781 24.4339836 17.8935781 24.4339836 10.664537 23.4012164 10.664537 23.4012164 17.8935781"></polygon>
                        <polygon id="Fill-5" fill="#FFFFFF" points="20.3030795 18.9263014 21.3358466 18.9263014 21.3358466 10.6646027 20.3030795 10.6646027 20.3030795 14.7954521 18.2376548 14.7954521 18.2376548 15.8281096 20.3030795 15.8281096"></polygon>
                        <polygon id="Fill-6" fill="#FFFFFF" points="15.1395068 15.8281644 17.2049315 15.8281644 17.2049315 14.7953973 15.1395068 14.7953973"></polygon>
                        <polygon id="Fill-7" fill="#FFFFFF" points="11.0086575 24.089863 12.0413151 24.089863 12.0413151 16.8608219 11.0086575 16.8608219"></polygon>
                        <polygon id="Fill-8" fill="#FFFFFF" points="25.4666301 25.1225205 26.4992877 25.1225205 26.4992877 24.089863 25.4666301 24.089863"></polygon>
                        <polygon id="Fill-9" fill="#FFFFFF" points="22.368526 29.2534575 14.1068274 29.2534575 14.1068274 27.1880329 13.0740603 27.1880329 13.0740603 30.2861151 13.7626082 30.2861151 23.4011836 30.2861151 23.4011836 29.2534575 23.4011836 27.1880329 22.368526 27.1880329"></polygon>
                        <polygon id="Fill-10" fill="#FFFFFF" points="23.4012164 25.1225753 23.4012164 27.188 24.4339836 27.188 24.4339836 26.1553425 25.4666411 26.1553425 25.4666411 25.1225753 24.4339836 25.1225753"></polygon>
                        <polygon id="Fill-11" fill="#FFFFFF" points="17.2049315 17.893589 18.237589 17.893589 18.237589 15.8281644 17.2049315 15.8281644"></polygon>
                        <polygon id="Fill-12" fill="#FFFFFF" points="26.4993973 24.089863 27.5321644 24.089863 27.5321644 19.9590137 26.4993973 19.9590137"></polygon>
                        <polygon id="Fill-13" fill="#FFFFFF" points="12.0413151 27.1879452 13.0739726 27.1879452 13.0739726 24.089863 12.0413151 24.089863"></polygon>
                        <polygon id="Fill-14" fill="#FFFFFF" points="14.1068055 18.9263014 15.139463 18.9263014 15.139463 15.8281096 14.1068055 15.8281096 12.0413808 15.8281096 12.0413808 16.8608767 14.1068055 16.8608767"></polygon>
                        <polygon id="Fill-15" fill="#FFFFFF" points="43.9182466 21.8953425 44.9509041 21.8953425 44.9509041 20.8625753 43.9182466 20.8625753"></polygon>
                        <polygon id="Fill-16" fill="#FFFFFF" points="42.8854795 27.0589589 44.9509041 27.0589589 44.9509041 26.0261918 42.8854795 26.0261918"></polygon>
                        <polygon id="Fill-17" fill="#FFFFFF" points="42.8854795 20.8626849 43.9182466 20.8626849 43.9182466 17.7644932 42.8854795 17.7644932"></polygon>
                        <polygon id="Fill-18" fill="#FFFFFF" points="44.9509041 26.0261918 45.9835616 26.0261918 45.9835616 24.9935342 44.9509041 24.9935342"></polygon>
                        <polygon id="Fill-19" fill="#FFFFFF" points="47.0163288 23.9608767 48.0489863 23.9608767 48.0489863 22.9281096 47.0163288 22.9281096"></polygon>
                        <polygon id="Fill-20" fill="#FFFFFF" points="48.0490959 22.928 49.081863 22.928 49.081863 21.8953425 48.0490959 21.8953425"></polygon>
                        <polygon id="Fill-21" fill="#FFFFFF" points="41.8528219 22.928 43.9182466 22.928 43.9182466 21.8953425 41.8528219 21.8953425"></polygon>
                        <polygon id="Fill-22" fill="#FFFFFF" points="45.9836712 24.9934247 47.0164384 24.9934247 47.0164384 23.9607671 45.9836712 23.9607671"></polygon>
                        <polygon id="Fill-23" fill="#FFFFFF" points="43.9182466 17.7644932 44.9509041 17.7644932 44.9509041 14.6663014 43.9182466 14.6663014"></polygon>
                        <polygon id="Fill-24" fill="#FFFFFF" points="40.8200548 11.5682192 41.8527123 11.5682192 41.8527123 9.50279452 40.8200548 9.50279452"></polygon>
                        <polygon id="Fill-25" fill="#FFFFFF" points="51.1471781 27.0588493 52.1799452 27.0588493 52.1799452 23.9607671 51.1471781 23.9607671"></polygon>
                        <polygon id="Fill-26" fill="#FFFFFF" points="50.1145096 29.1243397 41.852811 29.1243397 41.852811 28.0916822 42.8854685 28.0916822 42.8854685 27.0589151 40.8200438 27.0589151 40.8200438 30.1571068 51.1471671 30.1571068 51.1471671 27.0589151 50.1145096 27.0589151"></polygon>
                        <polygon id="Fill-27" fill="#FFFFFF" points="52.1799562 17.7644822 52.1799562 21.8953315 50.1145315 21.8953315 50.1145315 22.9280986 52.1799562 22.9280986 52.1799562 23.9608658 53.2126137 23.9608658 53.2126137 17.7644822"></polygon>
                        <polygon id="Fill-28" fill="#FFFFFF" points="39.7873973 27.0589589 40.8201644 27.0589589 40.8201644 16.7318356 39.7873973 16.7318356"></polygon>
                        <polygon id="Fill-29" fill="#FFFFFF" points="40.8200548 16.731726 41.8527123 16.731726 41.8527123 14.6663014 40.8200548 14.6663014"></polygon>
                        <polygon id="Fill-30" fill="#FFFFFF" points="42.8854904 11.5682082 43.9182575 11.5682082 43.9182575 9.50278356 45.9836822 9.50278356 45.9836822 11.5682082 44.9509151 11.5682082 44.9509151 14.6664 45.9836822 14.6664 45.9836822 12.6008658 47.0163397 12.6008658 47.0163397 8.47001644 41.8528329 8.47001644 41.8528329 9.50278356 42.8854904 9.50278356"></polygon>
                        <polygon id="Fill-31" fill="#FFFFFF" points="44.950926 19.8299288 44.950926 20.8625863 47.0163507 20.8625863 47.0163507 19.8299288 49.0817753 19.8299288 49.0817753 21.8953534 50.1145425 21.8953534 50.1145425 16.731737 51.1472 16.731737 51.1472 15.6990795 49.0817753 15.6990795 49.0817753 18.7972712 47.0163507 18.7972712 47.0163507 15.6990795 49.0817753 15.6990795 49.0817753 14.6663123 45.9835836 14.6663123 45.9835836 19.8299288"></polygon>
                        <polygon id="Fill-32" fill="#FFFFFF" points="41.8528219 14.666411 42.8854795 14.666411 42.8854795 11.5682192 41.8528219 11.5682192"></polygon>
                        <polygon id="Fill-33" fill="#FFFFFF" points="51.1471781 17.7644932 52.1799452 17.7644932 52.1799452 16.7318356 51.1471781 16.7318356"></polygon>
                        <polygon id="Fill-34" fill="#FFFFFF" points="79.9260274 19.8299178 80.9586849 19.8299178 80.9586849 18.7972603 79.9260274 18.7972603"></polygon>
                        <polygon id="Fill-35" fill="#FFFFFF" points="78.8932493 22.9280658 78.8932493 18.7972164 79.9259068 18.7972164 79.9259068 17.7644493 78.8932493 17.7644493 78.8932493 9.50275068 77.8604822 9.50275068 77.8604822 22.9280658"></polygon>
                        <polygon id="Fill-36" fill="#FFFFFF" points="74.7623562 18.7972384 75.7950137 18.7972384 75.7950137 9.5027726 74.7623562 9.5027726 74.7623562 14.666389 72.6969315 14.666389 72.6969315 15.6990466 74.7623562 15.6990466"></polygon>
                        <polygon id="Fill-37" fill="#FFFFFF" points="65.4679452 23.9607671 66.5007123 23.9607671 66.5007123 10.5354521 65.4679452 10.5354521"></polygon>
                        <polygon id="Fill-38" fill="#FFFFFF" points="75.7950685 9.50268493 77.8604932 9.50268493 77.8604932 8.4700274 75.7950685 8.4700274"></polygon>
                        <polygon id="Fill-39" fill="#FFFFFF" points="66.5007123 10.5354521 68.566137 10.5354521 68.566137 9.50279452 66.5007123 9.50279452"></polygon>
                        <polygon id="Fill-40" fill="#FFFFFF" points="71.6642192 17.7644932 72.6968767 17.7644932 72.6968767 15.6990685 71.6642192 15.6990685"></polygon>
                        <polygon id="Fill-41" fill="#FFFFFF" points="79.9259178 24.9935342 80.9585753 24.9935342 80.9585753 23.9608767 79.9259178 23.9608767"></polygon>
                        <polygon id="Fill-42" fill="#FFFFFF" points="77.8605041 24.9935123 77.8605041 27.058937 78.8932712 27.058937 78.8932712 26.0261699 79.9259288 26.0261699 79.9259288 24.9935123"></polygon>
                        <polygon id="Fill-43" fill="#FFFFFF" points="80.9586849 23.9607671 81.9914521 23.9607671 81.9914521 19.8299178 80.9586849 19.8299178"></polygon>
                        <polygon id="Fill-44" fill="#FFFFFF" points="76.8278027 29.1243397 68.5661041 29.1243397 68.5661041 27.0589151 67.533337 27.0589151 67.533337 30.1571068 77.8604603 30.1571068 77.8604603 27.0589151 76.8278027 27.0589151"></polygon>
                        <polygon id="Fill-45" fill="#FFFFFF" points="69.5987836 18.7972384 69.5987836 15.6990466 71.6642082 15.6990466 71.6642082 14.666389 69.5987836 14.666389 69.5987836 10.5354301 68.566126 10.5354301 68.566126 18.7972384"></polygon>
                        <polygon id="Fill-46" fill="#FFFFFF" points="66.5006027 27.0589589 67.5332603 27.0589589 67.5332603 23.9607671 66.5006027 23.9607671"></polygon>
                    </g>
                </g>
            </g>
        </g>
    </g>
</svg>