<?xml version="1.0" encoding="UTF-8"?>
<svg width="140px" height="60px" viewBox="0 0 140 60" version="1.1" xmlns="http://www.w3.org/2000/svg" xmlns:xlink="http://www.w3.org/1999/xlink">
    <!-- Generator: Sketch 51 (57462) - http://www.bohemiancoding.com/sketch -->
    <title>Icons</title>
    <desc>Created with Sketch.</desc>
    <defs></defs>
    <g id="Symbols" stroke="none" stroke-width="1" fill="none" fill-rule="evenodd">
        <g id="Header_desktop">
            <g id="Group-4">
                <g id="Logo-Copy">
                    <g id="Icons">
                        <polygon id="Fill-1" fill="#3F36FF" points="0 59.9087671 139.309959 59.9087671 139.309959 0.164383562 0 0.164383562"></polygon>
                        <polygon id="Fill-2" fill="#FFFFFF" points="31.9786879 15.9968219 35.0744063 15.9968219 35.0744063 14.4476712 31.9786879 14.4476712"></polygon>
                        <polygon id="Fill-3" fill="#FFFFFF" points="38.1701248 29.9383562 39.7179019 29.9383562 39.7179019 28.3893699 38.1701248 28.3893699"></polygon>
                        <polygon id="Fill-4" fill="#FFFFFF" points="35.0744228 35.1021205 36.6223641 35.1021205 36.6223641 28.3895178 38.1701412 28.3895178 38.1701412 26.8403671 36.6223641 26.8403671 36.6223641 15.9968055 35.0744228 15.9968055 35.0744228 26.8403671"></polygon>
                        <polygon id="Fill-5" fill="#FFFFFF" points="30.4308451 28.3894521 31.9787864 28.3894521 31.9787864 15.9969041 30.4308451 15.9969041 30.4308451 22.1931781 27.3351266 22.1931781 27.3351266 23.7421644 30.4308451 23.7421644"></polygon>
                        <polygon id="Fill-6" fill="#FFFFFF" points="22.6915325 23.7422466 25.787251 23.7422466 25.787251 22.1930959 22.6915325 22.1930959"></polygon>
                        <polygon id="Fill-7" fill="#FFFFFF" points="16.5000956 36.1347945 18.0478727 36.1347945 18.0478727 25.2912329 16.5000956 25.2912329"></polygon>
                        <polygon id="Fill-8" fill="#FFFFFF" points="38.1701248 37.6837808 39.7179019 37.6837808 39.7179019 36.1347945 38.1701248 36.1347945"></polygon>
                        <polygon id="Fill-9" fill="#FFFFFF" points="33.5265964 43.8801863 21.1437226 43.8801863 21.1437226 40.7820493 19.5957812 40.7820493 19.5957812 45.4291726 20.6277969 45.4291726 35.0743735 45.4291726 35.0743735 43.8801863 35.0743735 40.7820493 33.5265964 40.7820493"></polygon>
                        <polygon id="Fill-10" fill="#FFFFFF" points="35.0744228 37.683863 35.0744228 40.782 36.6223641 40.782 36.6223641 39.2330137 38.1701412 39.2330137 38.1701412 37.683863 36.6223641 37.683863"></polygon>
                        <polygon id="Fill-11" fill="#FFFFFF" points="25.787251 26.8403836 27.3350281 26.8403836 27.3350281 23.7422466 25.787251 23.7422466"></polygon>
                        <polygon id="Fill-12" fill="#FFFFFF" points="39.7180662 36.1347945 41.2660075 36.1347945 41.2660075 29.9385205 39.7180662 29.9385205"></polygon>
                        <polygon id="Fill-13" fill="#FFFFFF" points="18.0478727 40.7819178 19.5956498 40.7819178 19.5956498 36.1347945 18.0478727 36.1347945"></polygon>
                        <polygon id="Fill-14" fill="#FFFFFF" points="21.1436897 28.3894521 22.6914668 28.3894521 22.6914668 23.7421644 21.1436897 23.7421644 18.0479713 23.7421644 18.0479713 25.2913151 21.1436897 25.2913151"></polygon>
                        <polygon id="Fill-15" fill="#FFFFFF" points="65.8259433 32.8430137 67.3737204 32.8430137 67.3737204 31.293863 65.8259433 31.293863"></polygon>
                        <polygon id="Fill-16" fill="#FFFFFF" points="64.278002 40.5884384 67.3737204 40.5884384 67.3737204 39.0392877 64.278002 39.0392877"></polygon>
                        <polygon id="Fill-17" fill="#FFFFFF" points="64.278002 31.2940274 65.8259433 31.2940274 65.8259433 26.6467397 64.278002 26.6467397"></polygon>
                        <polygon id="Fill-18" fill="#FFFFFF" points="67.3737204 39.0392877 68.9214975 39.0392877 68.9214975 37.4903014 67.3737204 37.4903014"></polygon>
                        <polygon id="Fill-19" fill="#FFFFFF" points="70.4694389 35.9413151 72.017216 35.9413151 72.017216 34.3921644 70.4694389 34.3921644"></polygon>
                        <polygon id="Fill-20" fill="#FFFFFF" points="72.0173803 34.392 73.5653216 34.392 73.5653216 32.8430137 72.0173803 32.8430137"></polygon>
                        <polygon id="Fill-21" fill="#FFFFFF" points="62.7302249 34.392 65.8259433 34.392 65.8259433 32.8430137 62.7302249 32.8430137"></polygon>
                        <polygon id="Fill-22" fill="#FFFFFF" points="68.9216618 37.490137 70.4696032 37.490137 70.4696032 35.9411507 68.9216618 35.9411507"></polygon>
                        <polygon id="Fill-23" fill="#FFFFFF" points="65.8259433 26.6467397 67.3737204 26.6467397 67.3737204 21.9994521 65.8259433 21.9994521"></polygon>
                        <polygon id="Fill-24" fill="#FFFFFF" points="61.1822835 17.3523288 62.7300606 17.3523288 62.7300606 14.2541918 61.1822835 14.2541918"></polygon>
                        <polygon id="Fill-25" fill="#FFFFFF" points="76.6608758 40.588274 78.2088172 40.588274 78.2088172 35.9411507 76.6608758 35.9411507"></polygon>
                        <polygon id="Fill-26" fill="#FFFFFF" points="75.1130823 43.6865096 62.7302085 43.6865096 62.7302085 42.1375233 64.2779856 42.1375233 64.2779856 40.5883726 61.1822671 40.5883726 61.1822671 45.2356603 76.6608594 45.2356603 76.6608594 40.5883726 75.1130823 40.5883726"></polygon>
                        <polygon id="Fill-27" fill="#FFFFFF" points="78.2088336 26.6467233 78.2088336 32.8429973 75.1131151 32.8429973 75.1131151 34.3921479 78.2088336 34.3921479 78.2088336 35.9412986 79.7566107 35.9412986 79.7566107 26.6467233"></polygon>
                        <polygon id="Fill-28" fill="#FFFFFF" points="59.6345064 40.5884384 61.1824478 40.5884384 61.1824478 25.0977534 59.6345064 25.0977534"></polygon>
                        <polygon id="Fill-29" fill="#FFFFFF" points="61.1822835 25.097589 62.7300606 25.097589 62.7300606 21.9994521 61.1822835 21.9994521"></polygon>
                        <polygon id="Fill-30" fill="#FFFFFF" points="64.2780184 17.3523123 65.8259598 17.3523123 65.8259598 14.2541753 68.9216782 14.2541753 68.9216782 17.3523123 67.3737369 17.3523123 67.3737369 21.9996 68.9216782 21.9996 68.9216782 18.9012986 70.4694553 18.9012986 70.4694553 12.7050247 62.7302413 12.7050247 62.7302413 14.2541753 64.2780184 14.2541753"></polygon>
                        <polygon id="Fill-31" fill="#FFFFFF" points="67.3737533 29.7448932 67.3737533 31.2938795 70.4694718 31.2938795 70.4694718 29.7448932 73.5651902 29.7448932 73.5651902 32.8430301 75.1131316 32.8430301 75.1131316 25.0976055 76.6609087 25.0976055 76.6609087 23.5486192 73.5651902 23.5486192 73.5651902 28.1959068 70.4694718 28.1959068 70.4694718 23.5486192 73.5651902 23.5486192 73.5651902 21.9994685 68.9215304 21.9994685 68.9215304 29.7448932"></polygon>
                        <polygon id="Fill-32" fill="#FFFFFF" points="62.7302249 21.9996164 64.278002 21.9996164 64.278002 17.3523288 62.7302249 17.3523288"></polygon>
                        <polygon id="Fill-33" fill="#FFFFFF" points="76.6608758 26.6467397 78.2088172 26.6467397 78.2088172 25.0977534 76.6608758 25.0977534"></polygon>
                        <polygon id="Fill-34" fill="#FFFFFF" points="119.795451 29.7448767 121.343228 29.7448767 121.343228 28.1958904 119.795451 28.1958904"></polygon>
                        <polygon id="Fill-35" fill="#FFFFFF" points="118.247493 34.3920986 118.247493 28.1958247 119.79527 28.1958247 119.79527 26.646674 118.247493 26.646674 118.247493 14.254126 116.699552 14.254126 116.699552 34.3920986"></polygon>
                        <polygon id="Fill-36" fill="#FFFFFF" points="112.055991 28.1958575 113.603768 28.1958575 113.603768 14.2541589 112.055991 14.2541589 112.055991 21.9995836 108.960272 21.9995836 108.960272 23.5485699 112.055991 23.5485699"></polygon>
                        <polygon id="Fill-37" fill="#FFFFFF" points="98.1252575 35.9411507 99.6731988 35.9411507 99.6731988 15.8031781 98.1252575 15.8031781"></polygon>
                        <polygon id="Fill-38" fill="#FFFFFF" points="113.60385 14.2540274 116.699568 14.2540274 116.699568 12.7050411 113.60385 12.7050411"></polygon>
                        <polygon id="Fill-39" fill="#FFFFFF" points="99.6731988 15.8031781 102.768917 15.8031781 102.768917 14.2541918 99.6731988 14.2541918"></polygon>
                        <polygon id="Fill-40" fill="#FFFFFF" points="107.412413 26.6467397 108.96019 26.6467397 108.96019 23.5486027 107.412413 23.5486027"></polygon>
                        <polygon id="Fill-41" fill="#FFFFFF" points="119.795287 37.4903014 121.343064 37.4903014 121.343064 35.9413151 119.795287 35.9413151"></polygon>
                        <polygon id="Fill-42" fill="#FFFFFF" points="116.699585 37.4902685 116.699585 40.5884055 118.247526 40.5884055 118.247526 39.0392548 119.795303 39.0392548 119.795303 37.4902685"></polygon>
                        <polygon id="Fill-43" fill="#FFFFFF" points="121.343228 35.9411507 122.891169 35.9411507 122.891169 29.7448767 121.343228 29.7448767"></polygon>
                        <polygon id="Fill-44" fill="#FFFFFF" points="115.151742 43.6865096 102.768868 43.6865096 102.768868 40.5883726 101.220927 40.5883726 101.220927 45.2356603 116.699519 45.2356603 116.699519 40.5883726 115.151742 40.5883726"></polygon>
                        <polygon id="Fill-45" fill="#FFFFFF" points="104.316678 28.1958575 104.316678 23.5485699 107.412396 23.5485699 107.412396 21.9995836 104.316678 21.9995836 104.316678 15.8031452 102.768901 15.8031452 102.768901 28.1958575"></polygon>
                        <polygon id="Fill-46" fill="#FFFFFF" points="99.6730346 40.5884384 101.220812 40.5884384 101.220812 35.9411507 99.6730346 35.9411507"></polygon>
                    </g>
                </g>
            </g>
        </g>
    </g>
</svg>