<?xml version="1.0" encoding="UTF-8"?>
<svg width="180px" height="100px" viewBox="0 0 180 100" version="1.1" xmlns="http://www.w3.org/2000/svg" xmlns:xlink="http://www.w3.org/1999/xlink">
    <!-- Generator: Sketch 51 (57462) - http://www.bohemiancoding.com/sketch -->
    <title>Group 13</title>
    <desc>Created with Sketch.</desc>
    <defs></defs>
    <g id="Instruction-—-Compose" stroke="none" stroke-width="1" fill="none" fill-rule="evenodd">
        <g id="2-General-unfilled" transform="translate(-630.000000, -367.000000)">
            <rect fill="#F6F6F6" x="0" y="0" width="1440" height="1753"></rect>
            <g id="Group-13" opacity="0.300000012" transform="translate(630.000000, 367.000000)" fill="#555555">
                <rect id="Rectangle-2" x="15" y="70" width="5" height="5"></rect>
                <rect id="Rectangle-2-Copy-38" x="5" y="80" width="5" height="5"></rect>
                <rect id="Rectangle-2-Copy" x="20" y="65" width="5" height="5"></rect>
                <rect id="Rectangle-2-Copy-39" x="10" y="75" width="5" height="5"></rect>
                <rect id="Rectangle-2-Copy-2" x="25" y="60" width="5" height="5"></rect>
                <rect id="Rectangle-2-Copy-3" x="30" y="55" width="5" height="5"></rect>
                <rect id="Rectangle-2-Copy-4" x="35" y="50" width="5" height="5"></rect>
                <rect id="Rectangle-2-Copy-5" x="40" y="45" width="5" height="5"></rect>
                <rect id="Rectangle-2-Copy-6" x="45" y="40" width="5" height="5"></rect>
                <rect id="Rectangle-2-Copy-7" x="50" y="35" width="5" height="5"></rect>
                <rect id="Rectangle-2-Copy-8" x="55" y="30" width="5" height="5"></rect>
                <rect id="Rectangle-2-Copy-10" x="65" y="30" width="5" height="5"></rect>
                <rect id="Rectangle-2-Copy-11" x="70" y="35" width="5" height="5"></rect>
                <rect id="Rectangle-2-Copy-12" x="75" y="40" width="5" height="5"></rect>
                <rect id="Rectangle-2-Copy-13" x="80" y="45" width="5" height="5"></rect>
                <rect id="Rectangle-2-Copy-14" x="85" y="50" width="5" height="5"></rect>
                <rect id="Rectangle-2-Copy-15" x="90" y="55" width="5" height="5"></rect>
                <rect id="Rectangle-2-Copy-16" x="95" y="60" width="5" height="5"></rect>
                <rect id="Rectangle-2-Copy-17" x="100" y="65" width="5" height="5"></rect>
                <rect id="Rectangle-2-Copy-25" x="115" y="30" width="5" height="5"></rect>
                <rect id="Rectangle-2-Copy-26" x="115" y="25" width="5" height="5"></rect>
                <rect id="Rectangle-2-Copy-29" x="120" y="20" width="5" height="5"></rect>
                <rect id="Rectangle-2-Copy-51" x="120" y="35" width="5" height="5"></rect>
                <rect id="Rectangle-2-Copy-28" x="125" y="15" width="5" height="5"></rect>
                <rect id="Rectangle-2-Copy-53" x="125" y="40" width="5" height="5"></rect>
                <rect id="Rectangle-2-Copy-27" x="130" y="15" width="5" height="5"></rect>
                <rect id="Rectangle-2-Copy-54" x="130" y="40" width="5" height="5"></rect>
                <rect id="Rectangle-2-Copy-32" x="135" y="20" width="5" height="5"></rect>
                <rect id="Rectangle-2-Copy-52" x="135" y="35" width="5" height="5"></rect>
                <rect id="Rectangle-2-Copy-31" x="140" y="25" width="5" height="5"></rect>
                <rect id="Rectangle-2-Copy-30" x="140" y="30" width="5" height="5"></rect>
                <rect id="Rectangle-2-Copy-18" x="105" y="70" width="5" height="5"></rect>
                <rect id="Rectangle-2-Copy-19" x="110" y="75" width="5" height="5"></rect>
                <rect id="Rectangle-2-Copy-21" x="120" y="85" width="5" height="5"></rect>
                <rect id="Rectangle-2-Copy-20" x="115" y="80" width="5" height="5"></rect>
                <rect id="Rectangle-2-Copy-40" x="120" y="75" width="5" height="5"></rect>
                <rect id="Rectangle-2-Copy-41" x="125" y="70" width="5" height="5"></rect>
                <rect id="Rectangle-2-Copy-42" x="130" y="65" width="5" height="5"></rect>
                <rect id="Rectangle-2-Copy-43" x="135" y="60" width="5" height="5"></rect>
                <rect id="Rectangle-2-Copy-44" x="140" y="55" width="5" height="5"></rect>
                <rect id="Rectangle-2-Copy-45" x="145" y="60" width="5" height="5"></rect>
                <rect id="Rectangle-2-Copy-46" x="150" y="65" width="5" height="5"></rect>
                <rect id="Rectangle-2-Copy-47" x="155" y="70" width="5" height="5"></rect>
                <rect id="Rectangle-2-Copy-48" x="160" y="75" width="5" height="5"></rect>
                <rect id="Rectangle-2-Copy-49" x="165" y="80" width="5" height="5"></rect>
                <rect id="Rectangle-2-Copy-50" x="170" y="85" width="5" height="5"></rect>
                <rect id="Rectangle-2-Copy-37" x="125" y="90" width="5" height="5"></rect>
                <rect id="Rectangle-2-Copy-9" x="60" y="25" width="5" height="5"></rect>
                <path d="M5,5 L5,95 L175,95 L175,5 L5,5 Z M0,0 L180,0 L180,100 L0,100 L0,0 Z" id="Rectangle-3" fill-rule="nonzero"></path>
            </g>
        </g>
    </g>
</svg>