<svg width="103" height="18" viewBox="0 0 103 18" xmlns="http://www.w3.org/2000/svg">
    <title>
        Text
    </title>
    <g fill="#3F36FF" fill-rule="evenodd">
        <path d="M13.01 5.143l2.373 7.667h.465L17.414 0h3.449L18.71 17h-5.112l-2.47-8.548h-.49L8.143 17H3.03L.878 0h3.498l1.541 12.81h.49l2.348-7.667z"/>
        <path d="M22.903 17h2.914V4.98h-2.914V17zM22.86 2.993h2.998V0H22.86v2.993z"/>
        <path d="M38.417 17l-2.846-5.635h-.467l-1.982 2.198V17h-3.266V0h3.266v9.75l4.455-4.77h3.64L37.81 8.77 41.846 17z"/>
        <path d="M44.886 17H47.8V4.98h-2.914V17zm-.042-14.007h2.998V0h-2.998v2.993z"/>
        <path d="M55.383 7.572h3.95c1.046 0 1.784-.195 2.212-.584.428-.389.642-.94.642-1.655 0-.793-.242-1.36-.725-1.702-.484-.341-1.313-.512-2.486-.512h-3.593v4.453zM59.833 0c1.886 0 3.354.465 4.4 1.395 1.047.93 1.57 2.23 1.57 3.9 0 1.066-.218 1.984-.654 2.756a4.54 4.54 0 0 1-1.867 1.8L65.827 17H62.26l-2.284-6.381h-4.592V17h-3.545V0h7.994z"/>
        <path d="M73.636 18c-.814 0-1.522-.128-2.125-.383a3.959 3.959 0 0 1-1.501-1.085 4.583 4.583 0 0 1-.892-1.677 7.47 7.47 0 0 1-.293-2.159V5h3.42v7.203c0 .888.202 1.566.61 2.035.406.469 1.009.703 1.807.703a2.51 2.51 0 0 0 1.148-.259c.341-.173.63-.403.866-.69.236-.288.416-.625.538-1.012.122-.386.183-.793.183-1.22V5h3.419v12.68h-3.321v-1.185h-.489c-.277.428-.7.786-1.27 1.073-.57.288-1.27.432-2.1.432"/>
        <path d="M93.374 17l-2.846-5.635h-.466l-1.983 2.198V17h-3.266V0h3.266v9.75l4.455-4.77h3.64l-3.406 3.79L96.803 17z"/>
        <path d="M99.843 17h2.914V4.98h-2.914V17zM99.8 2.993h2.998V0H99.8v2.993z"/>
    </g>
</svg>
