<svg width="140" height="60" viewBox="0 0 140 60" xmlns="http://www.w3.org/2000/svg">
    <title>
        Icons
    </title>
    <g fill="none" fill-rule="evenodd">
        <path fill="#3F36FF" d="M0 59.909h139.31V.164H0z"/>
        <path fill="#FFF" d="M31.979 15.997h3.095v-1.55H31.98z"/>
        <path fill="#FFF" d="M38.17 29.938h1.548V28.39H38.17z"/>
        <path fill="#FFF" d="M35.074 35.102h1.548V28.39h1.548v-1.55h-1.548V15.997h-1.548V26.84z"/>
        <path fill="#FFF" d="M30.43 28.39h1.549V15.996H30.43v6.196h-3.096v1.55h3.096z"/>
        <path fill="#FFF" d="M22.692 23.742h3.095v-1.549h-3.095z"/>
        <path fill="#FFF" d="M16.5 36.135h1.548V25.29H16.5z"/>
        <path fill="#FFF" d="M38.17 37.684h1.548v-1.55H38.17z"/>
        <path fill="#FFF" d="M33.527 43.88H21.144v-3.098h-1.548v4.647h15.478v-4.647h-1.547z"/>
        <path fill="#FFF" d="M35.074 37.684v3.098h1.548v-1.549h1.548v-1.55h-1.548z"/>
        <path fill="#FFF" d="M25.787 26.84h1.548v-3.098h-1.548z"/>
        <path fill="#FFF" d="M39.718 36.135h1.548v-6.196h-1.548z"/>
        <path fill="#FFF" d="M18.048 40.782h1.548v-4.647h-1.548z"/>
        <path fill="#FFF" d="M21.144 28.39h1.547v-4.648h-4.643v1.55h3.096z"/>
        <path fill="#FFF" d="M65.826 32.843h1.548v-1.55h-1.548z"/>
        <path fill="#FFF" d="M64.278 40.588h3.096V39.04h-3.096z"/>
        <path fill="#FFF" d="M64.278 31.294h1.548v-4.647h-1.548z"/>
        <path fill="#FFF" d="M67.374 39.04h1.547v-1.55h-1.547z"/>
        <path fill="#FFF" d="M70.47 35.941h1.547v-1.549H70.47z"/>
        <path fill="#FFF" d="M72.017 34.392h1.548v-1.549h-1.548z"/>
        <path fill="#FFF" d="M62.73 34.392h3.096v-1.549H62.73z"/>
        <path fill="#FFF" d="M68.922 37.49h1.548v-1.549h-1.548z"/>
        <path fill="#FFF" d="M65.826 26.647h1.548v-4.648h-1.548z"/>
        <path fill="#FFF" d="M61.182 17.352h1.548v-3.098h-1.548z"/>
        <path fill="#FFF" d="M76.66 40.588h1.549v-4.647H76.66z"/>
        <path fill="#FFF" d="M75.113 43.687H62.73v-1.55h1.548v-1.549h-3.096v4.648h15.479v-4.648h-1.548z"/>
        <path fill="#FFF" d="M78.209 26.647v6.196h-3.096v1.55h3.096v1.548h1.548v-9.294z"/>
        <path fill="#FFF" d="M59.635 40.588h1.547v-15.49h-1.547z"/>
        <path fill="#FFF" d="M61.182 25.098h1.548v-3.099h-1.548z"/>
        <path fill="#FFF" d="M64.278 17.352h1.548v-3.098h3.096v3.098h-1.548V22h1.548V18.9h1.547v-6.196H62.73v1.55h1.548z"/>
        <path fill="#FFF" d="M67.374 29.745v1.549h3.095v-1.55h3.096v3.099h1.548v-7.745h1.548v-1.55h-3.096v4.648H70.47v-4.647h3.096v-1.55h-4.643v7.746z"/>
        <path fill="#FFF" d="M62.73 22h1.548v-4.648H62.73z"/>
        <path fill="#FFF" d="M76.66 26.647h1.549v-1.55H76.66z"/>
        <path fill="#FFF" d="M119.795 29.745h1.548v-1.55h-1.548z"/>
        <path fill="#FFF" d="M118.247 34.392v-6.196h1.548v-1.55h-1.548V14.255H116.7v20.138z"/>
        <path fill="#FFF" d="M112.056 28.196h1.548V14.254h-1.548V22h-3.096v1.549h3.096z"/>
        <path fill="#FFF" d="M98.125 35.941h1.548V15.803h-1.548z"/>
        <path fill="#FFF" d="M113.604 14.254h3.096v-1.549h-3.096z"/>
        <path fill="#FFF" d="M99.673 15.803h3.096v-1.549h-3.096z"/>
        <path fill="#FFF" d="M107.412 26.647h1.548v-3.098h-1.548z"/>
        <path fill="#FFF" d="M119.795 37.49h1.548v-1.549h-1.548z"/>
        <path fill="#FFF" d="M116.7 37.49v3.098h1.548V39.04h1.547V37.49z"/>
        <path fill="#FFF" d="M121.343 35.941h1.548v-6.196h-1.548z"/>
        <path fill="#FFF" d="M115.152 43.687h-12.383v-3.099h-1.548v4.648H116.7v-4.648h-1.548z"/>
        <path fill="#FFF" d="M104.317 28.196v-4.647h3.095v-1.55h-3.095v-6.196h-1.548v12.393z"/>
        <path fill="#FFF" d="M99.673 40.588h1.548v-4.647h-1.548z"/>
    </g>
</svg>
