<svg width="95" height="42" viewBox="0 0 95 42" xmlns="http://www.w3.org/2000/svg">
    <title>
        Group
    </title>
    <g fill="none" fill-rule="evenodd">
        <path stroke="#F1F1F1" fill="#202020" d="M1 40.94h92.946V1.11H1z"/>
        <path fill="#FFF" d="M22.336 11.665H24.4v-1.033h-2.065z"/>
        <path fill="#FFF" d="M26.467 20.959h1.032v-1.033h-1.032z"/>
        <path fill="#FFF" d="M24.401 24.401h1.033v-4.475h1.033v-1.032h-1.033v-7.23h-1.033v7.23z"/>
        <path fill="#FFF" d="M21.303 19.926h1.033v-8.261h-1.033v4.13h-2.065v1.033h2.065z"/>
        <path fill="#FFF" d="M16.14 16.828h2.065v-1.033H16.14z"/>
        <path fill="#FFF" d="M12.009 25.09h1.032v-7.23H12.01z"/>
        <path fill="#FFF" d="M26.467 26.123h1.032V25.09h-1.032z"/>
        <path fill="#FFF" d="M23.369 30.253h-8.262v-2.065h-1.033v3.098h10.327v-3.098H23.37z"/>
        <path fill="#FFF" d="M24.401 26.123v2.065h1.033v-1.033h1.033v-1.032h-1.033z"/>
        <path fill="#FFF" d="M18.205 18.894h1.033v-2.066h-1.033z"/>
        <path fill="#FFF" d="M27.5 25.09h1.032v-4.131H27.5z"/>
        <path fill="#FFF" d="M13.041 28.188h1.033V25.09h-1.033z"/>
        <path fill="#FFF" d="M15.107 19.926h1.032v-3.098h-3.098v1.033h2.066z"/>
        <path fill="#FFF" d="M44.918 22.895h1.033v-1.032h-1.033z"/>
        <path fill="#FFF" d="M43.885 28.059h2.066v-1.033h-2.066z"/>
        <path fill="#FFF" d="M43.885 21.863h1.033v-3.099h-1.033z"/>
        <path fill="#FFF" d="M45.95 27.026h1.034v-1.032H45.95z"/>
        <path fill="#FFF" d="M48.016 24.96h1.033v-1.032h-1.033z"/>
        <path fill="#FFF" d="M49.05 23.928h1.032v-1.033h-1.033z"/>
        <path fill="#FFF" d="M42.853 23.928h2.065v-1.033h-2.065z"/>
        <path fill="#FFF" d="M46.984 25.993h1.032v-1.032h-1.032z"/>
        <path fill="#FFF" d="M44.918 18.764h1.033v-3.098h-1.033z"/>
        <path fill="#FFF" d="M41.82 12.568h1.033v-2.065H41.82z"/>
        <path fill="#FFF" d="M52.147 28.059h1.033V24.96h-1.033z"/>
        <path fill="#FFF" d="M51.115 30.124h-8.262v-1.032h1.032v-1.033H41.82v3.098h10.327V28.06h-1.032z"/>
        <path fill="#FFF" d="M53.18 18.764v4.131h-2.065v1.033h2.065v1.033h1.033v-6.197z"/>
        <path fill="#FFF" d="M40.787 28.059h1.033V17.732h-1.033z"/>
        <path fill="#FFF" d="M41.82 17.732h1.033v-2.066H41.82z"/>
        <path fill="#FFF" d="M43.885 12.568h1.033v-2.065h2.066v2.065H45.95v3.098h1.033v-2.065h1.032V9.47h-5.163v1.033h1.032z"/>
        <path fill="#FFF" d="M45.95 20.83v1.033h2.066V20.83h2.066v2.065h1.033v-5.163h1.032v-1.033h-2.065v3.098h-2.066V16.7h2.066v-1.033h-3.098v5.164z"/>
        <path fill="#FFF" d="M42.853 15.666h1.032v-3.098h-1.032z"/>
        <path fill="#FFF" d="M52.147 18.764h1.033v-1.032h-1.033z"/>
        <path fill="#FFF" d="M80.926 20.83h1.033v-1.033h-1.033z"/>
        <path fill="#FFF" d="M79.893 23.928v-4.13h1.033v-1.034h-1.033v-8.261H78.86v13.425z"/>
        <path fill="#FFF" d="M75.762 19.797h1.033v-9.294h-1.033v5.163h-2.065V16.7h2.065z"/>
        <path fill="#FFF" d="M66.468 24.96H67.5V11.536h-1.033z"/>
        <path fill="#FFF" d="M76.795 10.503h2.065V9.47h-2.065z"/>
        <path fill="#FFF" d="M67.5 11.535h2.066v-1.032h-2.065z"/>
        <path fill="#FFF" d="M72.664 18.764h1.033V16.7h-1.033z"/>
        <path fill="#FFF" d="M80.926 25.994h1.033V24.96h-1.033z"/>
        <path fill="#FFF" d="M78.86 25.994v2.065h1.033v-1.033h1.033v-1.032z"/>
        <path fill="#FFF" d="M81.959 24.96h1.032v-4.13H81.96z"/>
        <path fill="#FFF" d="M77.828 30.124h-8.262V28.06h-1.033v3.098H78.86V28.06h-1.032z"/>
        <path fill="#FFF" d="M70.599 19.797V16.7h2.065v-1.033H70.6v-4.13h-1.033v8.261z"/>
        <path fill="#FFF" d="M67.5 28.059h1.033v-3.098h-1.032z"/>
    </g>
</svg>
