<?xml version="1.0" encoding="UTF-8"?><!DOCTYPE svg PUBLIC "-//W3C//DTD SVG 1.1//EN" "http://www.w3.org/Graphics/SVG/1.1/DTD/svg11.dtd"><svg xmlns="http://www.w3.org/2000/svg"><symbol id="icon-arr-right" viewBox="0 0 17 11">
    <title>
        &#x2192;
    </title>
    <path d="M17.01 5.208l-5.486 5-1.112-1.204 3.31-2.963H.807V4.375H13.7l-3.288-2.94L11.524.208z" fill-rule="evenodd"/>
</symbol><symbol id="icon-arrow-left" viewBox="0 0 15 25">
    <title>
        Arrow_left
    </title>
    <g fill-rule="evenodd">
        <path d="M15 25h-5v-5h5z"/>
        <path d="M15 5h-5V0h5z"/>
        <path d="M10 20H5v-5h5z"/>
        <path d="M10 10H5V5h5z"/>
        <path d="M5 15H0v-5h5z"/>
    </g>
</symbol><symbol id="icon-arrow-right" viewBox="0 0 15 25">
    <title>
        Arrow_right
    </title>
    <g fill-rule="evenodd">
        <path d="M0 0h5v5H0z"/>
        <path d="M0 20h5v5H0z"/>
        <path d="M5 5h5v5H5z"/>
        <path d="M5 15h5v5H5z"/>
        <path d="M10 10h5v5h-5z"/>
    </g>
</symbol><symbol id="icon-check" viewBox="0 0 17 13">
    <title>
        Group
    </title>
    <path d="M5.364 9.85l9.9-9.9 1.414 1.414L5.364 12.678l-.414-.415L0 7.313 1.414 5.9l3.95 3.95z" fill-rule="evenodd"/>
</symbol><symbol id="icon-close" viewBox="0 0 14 14">
    <path d="M14 1.4L12.6 0 7 5.6 1.4 0 0 1.4 5.6 7 0 12.6 1.4 14 7 8.4l5.6 5.6 1.4-1.4L8.4 7 14 1.4z"/>
</symbol><symbol id="icon-dwnld" viewBox="0 0 12 17">
    <title>
        dwnld
    </title>
    <path d="M11.968 15.01H0V17h11.968v-1.99zm-1.31-7.96L6.76 10.952V.787a.787.787 0 1 0-1.572 0v10.166l-3.846-3.85A.787.787 0 0 0 .23 8.216l5.188 5.193a.75.75 0 0 0 .058.052l.061.046.034.02c.044.026.056.031.068.037l.034.016.035.012c.013.005.025.01.038.013l.035.01.039.009.041.006c.087.01.139.01.19.005.048-.007.063-.008.076-.011l.039-.01.036-.009c.012-.003.024-.008.037-.013a.303.303 0 0 0 .07-.028l.035-.018c.043-.025.055-.031.066-.039l.034-.025a.855.855 0 0 0 .11-.101l5.216-5.218a.788.788 0 0 0 0-1.113.785.785 0 0 0-1.112 0z" fill-rule="nonzero" opacity=".7"/>
</symbol><symbol id="icon-edit" viewBox="0 0 22 22">
    <title>
        Combined Shape
    </title>
    <path d="M2.426 14.575L13.37 3.63l4.65 4.65L7.076 19.224l-4.65-4.65zM21.3 3.247c.477.489.477 1.27 0 1.759l-1.597 1.596-4.654-4.64L16.644.364a1.258 1.258 0 0 1 1.773 0l2.882 2.882zM.017 20.673l.744-4.438 4.668 4.668-4.438.744a.825.825 0 0 1-.974-.974z" fill-rule="nonzero"/>
</symbol><symbol id="icon-exclamation" viewBox="0 0 3 12">
    <title>
        !
    </title>
    <path d="M1.872 7.68L2.24 3.2V0H.16v3.2l.352 4.48h1.36zM1.2 8.992c-.688 0-1.2.544-1.2 1.2 0 .656.544 1.2 1.2 1.2.656 0 1.2-.544 1.2-1.2 0-.656-.544-1.2-1.2-1.2z" fill-rule="evenodd"/>
</symbol><symbol id="icon-face" viewBox="0 0 9 18">
    <title>
        Shape Copy
    </title>
    <path d="M5.944 13.5c0 1.436-.004 2.868.003 4.303 0 .158-.042.2-.196.197-1.2-.007-2.397-.007-3.597 0-.165 0-.217-.04-.217-.214.007-2.846.003-5.688.003-8.534 0-.286.032-.25-.256-.253-.509 0-1.017-.004-1.526.003-.123 0-.158-.04-.158-.164.004-.904.004-1.81 0-2.714 0-.125.035-.164.158-.16.533.007 1.063-.004 1.596.007.144.003.19-.036.19-.19-.007-.76 0-1.524-.004-2.285-.003-.632.092-1.242.404-1.8C2.68 1.09 3.186.673 3.81.402A4.776 4.776 0 0 1 5.46.033C6.586-.031 7.716.023 8.842 0 8.968-.003 9 .044 9 .165c-.004.94-.004 1.882 0 2.82 0 .144-.053.165-.175.165-.65-.004-1.299-.004-1.948-.004-.54 0-.93.397-.93.94 0 .56.007 1.117-.003 1.678-.004.16.049.2.2.2.888-.008 1.779 0 2.667-.008.147 0 .196.043.178.193-.052.46-.098.921-.147 1.382-.046.443-.123.882-.193 1.321-.02.125-.06.154-.172.154a242.84 242.84 0 0 0-2.28 0c-.299 0-.257-.04-.257.267.004 1.407.004 2.818.004 4.228z" fill-rule="nonzero" opacity=".705"/>
</symbol><symbol id="icon-facebook" viewBox="0 0 10 19">
    <title>
        facebook
    </title>
    <path d="M9.766.157v2.946H8.014c-.64 0-1.071.134-1.295.402-.223.268-.335.67-.335 1.205v2.11h3.27l-.435 3.303H6.384v8.471H2.97v-8.47H.123V6.82H2.97V4.387c0-1.384.387-2.457 1.161-3.22C4.904.404 5.934.023 7.222.023c1.093 0 1.941.045 2.544.134z" fill-rule="evenodd"/>
</symbol><symbol id="icon-heart-outline" viewBox="0 0 18 19">
    <style>
        .st0{fill:#b2b2b2}
    </style>
    <title>
        Icon
    </title>
    <g id="Symbols">
        <g id="Instr_card" transform="translate(-15 -326)">
            <path class="st0" d="M24 344.5l-.7-.8c-.7-.7-1.4-1.5-2.2-2.2-3.6-3.5-6.1-6.2-6.1-9.7 0-3.2 2.4-5.8 5.4-5.8 1.3 0 2.6.5 3.6 1.4 1-.9 2.3-1.4 3.6-1.4 3 0 5.4 2.5 5.4 5.8 0 3.5-2.5 6.2-6.1 9.7l-2.2 2.2-.7.8zM20.4 328c-1.9 0-3.4 1.7-3.4 3.8 0 2.7 2.3 5.1 5.5 8.2l1.5 1.5 1.5-1.5c3.2-3.1 5.5-5.5 5.5-8.2 0-2.1-1.5-3.8-3.4-3.8-.9 0-1.8.4-2.5 1.1l-1.1 1.1-1.1-1.1c-.7-.7-1.6-1.1-2.5-1.1z" id="Icon"/>
        </g>
    </g>
</symbol><symbol id="icon-heart" viewBox="0 0 18 19">
    <style>
        .st0{fill:none;stroke:#b2b2b2;stroke-width:2}
    </style>
    <title>
        Icon
    </title>
    <g id="Symbols">
        <g id="Instr_card" transform="translate(-15 -326)">
            <path id="Icon" class="st0" d="M16 331.8c0 3.1 2.4 5.7 5.8 9 .8.7 1.5 1.5 2.2 2.3.7-.8 1.4-1.5 2.2-2.3 3.4-3.3 5.8-5.9 5.8-9 0-2.7-1.9-4.8-4.4-4.8-1.2 0-2.3.5-3.2 1.4l-.4.4-.4-.4c-.9-.9-2-1.4-3.2-1.4-2.5 0-4.4 2.1-4.4 4.8z"/>
        </g>
    </g>
</symbol><symbol id="icon-l" viewBox="0 0 6 11">
    <title>
        Path 2
    </title>
    <path d="M2 0H0v10.112h5.893v-2H2z" fill-rule="nonzero"/>
</symbol><symbol id="icon-login-arrow" viewBox="0 0 24 6">
    <title>
        Rectangle 6
    </title>
    <path d="M23.78 5.607H.71a8 8 0 0 0 5.63-2.316L8 1.646a5.684 5.684 0 0 1 8 0l1.662 1.645a8 8 0 0 0 5.63 2.316z" fill-rule="evenodd"/>
</symbol><symbol id="icon-odnoklasniki" viewBox="0 0 11 18">
    <title>
        Combined Shape
    </title>
    <path d="M9.778 9C10.452 9 11 9.538 11 10.2c0 .6-.347.889-.611 1.04-.724.416-3.056 1.36-3.056 1.36l2.598 3.263s.458.56.458.937c0 .662-.548 1.2-1.222 1.2-.624 0-.907-.394-.907-.394S5.504 14.396 5.5 14.4c-.004-.004-2.76 3.206-2.76 3.206S2.457 18 1.833 18a1.212 1.212 0 0 1-1.222-1.2c0-.376.458-.937.458-.937L3.667 12.6S1.335 11.656.61 11.24C.347 11.09 0 10.8 0 10.2 0 9.538.548 9 1.222 9c.611 0 1.834 1.2 4.278 1.2C7.944 10.2 9.167 9 9.778 9zm-4.5-9C7.64 0 9.556 1.88 9.556 4.2c0 2.32-1.916 4.2-4.278 4.2C2.915 8.4 1 6.52 1 4.2 1 1.88 2.915 0 5.278 0zm0 6.3c1.18 0 2.139-.94 2.139-2.1 0-1.16-.959-2.1-2.14-2.1-1.18 0-2.138.94-2.138 2.1 0 1.16.957 2.1 2.139 2.1z" fill-rule="nonzero" opacity=".7"/>
</symbol><symbol id="icon-photo" viewBox="0 0 22 18">
    <title>
        photo
    </title>
    <path d="M18 4h-.4c-.4 0-.7-.2-.9-.6l-1.2-2.3c-.3-.7-1-1.1-1.8-1.1H8.2c-.7 0-1.4.4-1.8 1.1L5.3 3.4c-.2.4-.5.6-.9.6H4C1.8 4 0 5.8 0 8v6c0 2.2 1.8 4 4 4h14c2.2 0 4-1.8 4-4V8c0-2.2-1.8-4-4-4zm-7 10c-2.2 0-4-1.8-4-4s1.8-4 4-4 4 1.8 4 4-1.8 4-4 4z" fill-rule="nonzero"/>
</symbol><symbol id="icon-prnt" viewBox="0 0 20 19">
    <title>
        prnt
    </title>
    <path d="M18.09 0H1.91C.86 0 0 .877 0 1.957v10.007c0 1.1.86 2.004 1.91 2.004h1.323v4.209c0 .452.356.823.797.823h11.915c.44 0 .786-.371.786-.823v-4.209h1.359a1.86 1.86 0 0 0 1.358-.604c.36-.379.552-.879.552-1.4V1.957C20 .877 19.148 0 18.09 0zm-2.951 17.364H4.825V7.461H15.14v9.903zm2.95-5.032h-1.358V6.63a.788.788 0 0 0-.786-.805H4.03a.796.796 0 0 0-.797.805v5.702H1.909c-.165 0-.317-.178-.317-.368V1.957c0-.18.143-.309.317-.309h16.18a.31.31 0 0 1 .319.31v10.006c0 .184-.15.368-.318.368zM6.58 2.702H4.03c-.44 0-.797.372-.797.824 0 .452.356.824.797.824h2.55c.44 0 .797-.372.797-.824 0-.452-.357-.824-.797-.824z" fill-rule="nonzero" opacity=".7"/>
</symbol><symbol id="icon-remove" viewBox="0 0 16 16">
    <title>
        Combined Shape
    </title>
    <path d="M10.475 7.832l5.126 5.126-2.474 2.475L8 10.307l-5.127 5.126L.4 12.958l5.126-5.126L.4 2.705 2.873.23 8 5.357 13.127.23 15.6 2.705l-5.126 5.127z" fill-rule="evenodd"/>
</symbol><symbol id="icon-ruble" viewBox="0 0 10 12">
    <title>
        &#x20BD;
    </title>
    <path d="M5.648 7.92H3.36v1.072h3.76v1.248H3.36V12H1.52v-1.76H.24V8.992h1.28V7.92H.24V6.272h1.28V.8h4.128c1.008 0 1.872.352 2.576 1.056.704.688 1.056 1.536 1.056 2.544 0 .992-.352 1.824-1.056 2.512-.704.672-1.568 1.008-2.576 1.008zm0-5.392H3.36v3.744h2.288c.496 0 .928-.176 1.264-.544.352-.368.528-.8.528-1.328s-.176-.96-.528-1.328a1.648 1.648 0 0 0-1.264-.544z" fill-rule="evenodd"/>
</symbol><symbol id="icon-search" viewBox="0 0 28 28">
    <title>
        Group Copy
    </title>
    <g fill-rule="nonzero">
        <path d="M12.026 23.5C5.679 23.5.535 18.351.535 12S5.679.5 12.025.5C18.373.5 23.518 5.649 23.518 12s-5.145 11.5-11.491 11.5zm0-3c4.69 0 8.493-3.806 8.493-8.5s-3.802-8.5-8.493-8.5c-4.691 0-8.494 3.806-8.494 8.5s3.803 8.5 8.494 8.5z"/>
        <path d="M17.4 19.5l7.772 7.778 2.12-2.121-7.772-7.778z"/>
    </g>
</symbol><symbol id="icon-star" viewBox="0 0 14 13">
    <title>
        Star
    </title>
    <path d="M7 10.793l-4.114 1.87.507-4.491-3.05-3.335 4.428-.905L7 0l2.23 3.932 4.427.905-3.05 3.335.507 4.491z" fill-rule="evenodd"/>
</symbol><symbol id="icon-telegram" viewBox="0 0 18 15">
    <title>
        Shape Copy 3
    </title>
    <path d="M9.587 11.755c-.69.668-1.374 1.325-2.052 1.986-.237.232-.503.36-.843.343-.232-.013-.362-.114-.434-.333-.519-1.6-1.046-3.198-1.562-4.8-.05-.156-.124-.232-.283-.28A337.59 337.59 0 0 1 .75 7.535a2.09 2.09 0 0 1-.539-.247c-.25-.168-.287-.443-.062-.64.207-.183.455-.342.712-.444 1.495-.588 2.999-1.158 4.5-1.733 3.808-1.46 7.617-2.92 11.426-4.382.725-.278 1.281.114 1.206.892-.048.498-.178.988-.283 1.479-.827 3.88-1.654 7.76-2.486 11.639-.197.921-.849 1.162-1.611.603-1.278-.936-2.555-1.875-3.832-2.812-.06-.044-.124-.086-.194-.135zM6.72 12.933a1.73 1.73 0 0 1 .043-.011c.008-.037.02-.072.023-.108.082-.88.168-1.759.24-2.64a.645.645 0 0 1 .232-.468c1.178-1.046 2.348-2.1 3.522-3.15 1.298-1.163 2.597-2.326 3.89-3.494.08-.072.114-.195.17-.294-.123-.013-.253-.062-.364-.034-.15.04-.294.126-.428.21-2.866 1.794-5.73 3.59-8.598 5.38-.162.101-.192.187-.13.364.211.603.403 1.212.603 1.82l.797 2.425z" opacity=".705" fill-rule="evenodd"/>
</symbol><symbol id="icon-twitter" viewBox="0 0 16 13">
    <title>
        Shape Copy 2
    </title>
    <path d="M16 1.539a6.532 6.532 0 0 1-1.885.517A3.288 3.288 0 0 0 15.558.24a6.572 6.572 0 0 1-2.085.797A3.282 3.282 0 0 0 7.88 4.03 9.32 9.32 0 0 1 1.114.6 3.28 3.28 0 0 0 2.13 4.983a3.274 3.274 0 0 1-1.487-.41v.041a3.285 3.285 0 0 0 2.633 3.218 3.301 3.301 0 0 1-1.483.056 3.286 3.286 0 0 0 3.067 2.28A6.586 6.586 0 0 1 0 11.524 9.29 9.29 0 0 0 5.032 13c6.038 0 9.34-5 9.34-9.338 0-.142-.003-.284-.01-.425A6.648 6.648 0 0 0 16 1.54z" fill-rule="nonzero" opacity=".705"/>
</symbol><symbol id="icon-vk" viewBox="0 0 20 12">
    <title>
        path9 copy
    </title>
    <path d="M9.785 11.065h1.196s.36-.04.545-.233c.17-.177.165-.51.165-.51s-.024-1.563.72-1.793c.735-.226 1.677 1.51 2.676 2.177.755.505 1.33.395 1.33.395l2.67-.036s1.397-.084.735-1.154c-.054-.088-.386-.791-1.986-2.237-1.675-1.514-1.45-1.27.567-3.888 1.228-1.594 1.72-2.568 1.566-2.985-.146-.397-1.05-.292-1.05-.292l-3.007.018s-.223-.03-.389.067c-.161.094-.265.314-.265.314s-.476 1.234-1.11 2.283c-1.34 2.214-1.875 2.332-2.094 2.194-.51-.32-.382-1.287-.382-1.974 0-2.146.334-3.041-.65-3.272-.328-.077-.569-.128-1.405-.137-1.073-.01-1.98.004-2.495.249-.342.163-.606.527-.445.548.199.026.649.118.887.434.308.409.298 1.325.298 1.325s.177 2.526-.414 2.84c-.405.215-.961-.224-2.155-2.233C4.68 2.136 4.219.998 4.219.998S4.131.786 3.972.672C3.779.534 3.509.491 3.509.491L.652.509S.222.52.065.702c-.14.162-.01.496-.01.496s2.236 5.097 4.77 7.666c2.323 2.355 4.96 2.2 4.96 2.2z" opacity=".705" fill-rule="evenodd"/>
</symbol></svg>